<svg width="84" height="39" viewBox="0 0 84 39" fill="none" xmlns="http://www.w3.org/2000/svg">
<path d="M0.4 0.799999H5.76V23.28C5.76 24.24 5.92 24.8933 6.24 25.24C6.56 25.56 7 25.72 7.56 25.72C7.98667 25.72 8.42667 25.6667 8.88 25.56C9.33333 25.4533 9.73333 25.32 10.08 25.16L10.8 29.24C10.08 29.5867 9.24 29.8533 8.28 30.04C7.32 30.2267 6.45333 30.32 5.68 30.32C4 30.32 2.69333 29.88 1.76 29C0.853333 28.0933 0.4 26.8133 0.4 25.16V0.799999ZM22.8153 30.4C21.1086 30.4 19.5753 30.12 18.2153 29.56C16.8553 28.9733 15.6953 28.1733 14.7353 27.16C13.802 26.1467 13.082 24.9867 12.5753 23.68C12.0686 22.3733 11.8153 21 11.8153 19.56C11.8153 18.0933 12.0686 16.7067 12.5753 15.4C13.082 14.0933 13.802 12.9333 14.7353 11.92C15.6953 10.9067 16.8553 10.12 18.2153 9.56C19.5753 8.97333 21.1086 8.68 22.8153 8.68C24.522 8.68 26.042 8.97333 27.3753 9.56C28.7353 10.12 29.8953 10.9067 30.8553 11.92C31.8153 12.9333 32.5353 14.0933 33.0153 15.4C33.522 16.7067 33.7753 18.0933 33.7753 19.56C33.7753 21 33.522 22.3733 33.0153 23.68C32.5353 24.9867 31.8153 26.1467 30.8553 27.16C29.922 28.1733 28.7753 28.9733 27.4153 29.56C26.0553 30.12 24.522 30.4 22.8153 30.4ZM17.3353 19.56C17.3353 20.7867 17.5753 21.88 18.0553 22.84C18.5353 23.7733 19.1886 24.5067 20.0153 25.04C20.842 25.5733 21.7753 25.84 22.8153 25.84C23.8286 25.84 24.7486 25.5733 25.5753 25.04C26.402 24.48 27.0553 23.7333 27.5353 22.8C28.042 21.84 28.2953 20.7467 28.2953 19.52C28.2953 18.32 28.042 17.24 27.5353 16.28C27.0553 15.32 26.402 14.5733 25.5753 14.04C24.7486 13.5067 23.8286 13.24 22.8153 13.24C21.7753 13.24 20.842 13.52 20.0153 14.08C19.1886 14.6133 18.5353 15.36 18.0553 16.32C17.5753 17.2533 17.3353 18.3333 17.3353 19.56ZM45.5931 30.12C44.2065 30.12 42.9265 29.8533 41.7531 29.32C40.6065 28.76 39.6065 27.9867 38.7531 27C37.9265 26.0133 37.2865 24.88 36.8331 23.6C36.3798 22.32 36.1531 20.96 36.1531 19.52C36.1531 18 36.3931 16.5867 36.8731 15.28C37.3531 13.9733 38.0198 12.8267 38.8731 11.84C39.7531 10.8267 40.7798 10.0533 41.9531 9.52C43.1531 8.96 44.4731 8.68 45.9131 8.68C47.5398 8.68 48.9665 9.05333 50.1931 9.8C51.4198 10.52 52.4331 11.4933 53.2331 12.72V9.04H57.9131V29C57.9131 31.08 57.4065 32.8533 56.3931 34.32C55.4065 35.8133 54.0331 36.9467 52.2731 37.72C50.5131 38.52 48.5131 38.92 46.2731 38.92C44.0065 38.92 42.0865 38.5333 40.5131 37.76C38.9398 37.0133 37.5931 35.9467 36.4731 34.56L39.3931 31.72C40.1931 32.7067 41.1931 33.48 42.3931 34.04C43.6198 34.6 44.9131 34.88 46.2731 34.88C47.4198 34.88 48.4598 34.6667 49.3931 34.24C50.3531 33.84 51.1131 33.2 51.6731 32.32C52.2598 31.4667 52.5531 30.36 52.5531 29V26.36C51.8598 27.56 50.8731 28.4933 49.5931 29.16C48.3398 29.8 47.0065 30.12 45.5931 30.12ZM47.3931 25.84C47.9798 25.84 48.5398 25.7467 49.0731 25.56C49.6065 25.3733 50.0998 25.12 50.5531 24.8C51.0065 24.48 51.4065 24.1067 51.7531 23.68C52.0998 23.2267 52.3665 22.7733 52.5531 22.32V17.32C52.2331 16.4933 51.7798 15.7733 51.1931 15.16C50.6331 14.5467 49.9931 14.08 49.2731 13.76C48.5798 13.4133 47.8465 13.24 47.0731 13.24C46.2465 13.24 45.4998 13.4133 44.8331 13.76C44.1665 14.1067 43.5931 14.6 43.1131 15.24C42.6331 15.8533 42.2598 16.5467 41.9931 17.32C41.7531 18.0667 41.6331 18.8533 41.6331 19.68C41.6331 20.5333 41.7798 21.3333 42.0731 22.08C42.3665 22.8267 42.7665 23.48 43.2731 24.04C43.8065 24.6 44.4198 25.04 45.1131 25.36C45.8331 25.68 46.5931 25.84 47.3931 25.84ZM72.4247 30.4C70.718 30.4 69.1847 30.12 67.8247 29.56C66.4647 28.9733 65.3047 28.1733 64.3447 27.16C63.4114 26.1467 62.6914 24.9867 62.1847 23.68C61.678 22.3733 61.4247 21 61.4247 19.56C61.4247 18.0933 61.678 16.7067 62.1847 15.4C62.6914 14.0933 63.4114 12.9333 64.3447 11.92C65.3047 10.9067 66.4647 10.12 67.8247 9.56C69.1847 8.97333 70.718 8.68 72.4247 8.68C74.1314 8.68 75.6514 8.97333 76.9847 9.56C78.3447 10.12 79.5047 10.9067 80.4647 11.92C81.4247 12.9333 82.1447 14.0933 82.6247 15.4C83.1314 16.7067 83.3847 18.0933 83.3847 19.56C83.3847 21 83.1314 22.3733 82.6247 23.68C82.1447 24.9867 81.4247 26.1467 80.4647 27.16C79.5314 28.1733 78.3847 28.9733 77.0247 29.56C75.6647 30.12 74.1314 30.4 72.4247 30.4ZM66.9447 19.56C66.9447 20.7867 67.1847 21.88 67.6647 22.84C68.1447 23.7733 68.798 24.5067 69.6247 25.04C70.4514 25.5733 71.3847 25.84 72.4247 25.84C73.438 25.84 74.358 25.5733 75.1847 25.04C76.0114 24.48 76.6647 23.7333 77.1447 22.8C77.6514 21.84 77.9047 20.7467 77.9047 19.52C77.9047 18.32 77.6514 17.24 77.1447 16.28C76.6647 15.32 76.0114 14.5733 75.1847 14.04C74.358 13.5067 73.438 13.24 72.4247 13.24C71.3847 13.24 70.4514 13.52 69.6247 14.08C68.798 14.6133 68.1447 15.36 67.6647 16.32C67.1847 17.2533 66.9447 18.3333 66.9447 19.56Z" fill="url(#paint0_linear_6868_1390)"/>
<defs>
<linearGradient id="paint0_linear_6868_1390" x1="-8" y1="30" x2="41.5" y2="46" gradientUnits="userSpaceOnUse">
<stop stop-color="#00233C"/>
<stop offset="1" stop-color="#005EA2"/>
</linearGradient>
</defs>
</svg>
